# xmcd
#
# Track frame offsets:
#	150
#	15672
#	36035
#	49406
#	73404
#	89367
#	99772
#	109652
#	123513
#	140818
#	158035
#	176010
#	186744
#	199247
#	222831
#	227296
#	240822
#	257849
#	272527
#	288500
#	302486
#
# Disc length: 4314 seconds
#
# Revision: 0
# Processed by: cddbd v1.5.1PL2 Copyright (c) Steve Scherf et al.
# Submitted via: dBpowerAMP V4.0
#
DISCID=2d10d815
DTITLE=Various Artist - Live In Paris Olympia, 1992
DYEAR=2005
DGENRE=Blues
TTITLE0=Leon Redbone - Sweet Mama, Papa's Gettin' Mad
TTITLE1=Ain't Misbehavin'
TTITLE2=She's My Gal
TTITLE3=Goodbye Charlie Blues
TTITLE4=Up A Lazy River
TTITLE5=Csardas
TTITLE6=Polly Wolly Doodle
TTITLE7=Please Don't Talk About Me When I'm Gone
TTITLE8=Waitin' On You
TTITLE9=Think Of Me Thinking Of You
TTITLE10=Marie
TTITLE11=Sugar
TTITLE12=Big Time Woman
TTITLE13=Love Letters In The Sand
TTITLE14=Piano Interlude
TTITLE15=I'm Going Home
TTITLE16=Diddy Wa Diddie
TTITLE17=Play, Gypsy, Paly
TTITLE18=The Whistling Colonel
TTITLE19=Gotta Shake That Thing
TTITLE20=So, Relax
EXTD=
EXTT0=
EXTT1=
EXTT2=
EXTT3=
EXTT4=
EXTT5=
EXTT6=
EXTT7=
EXTT8=
EXTT9=
EXTT10=
EXTT11=
EXTT12=
EXTT13=
EXTT14=
EXTT15=
EXTT16=
EXTT17=
EXTT18=
EXTT19=
EXTT20=
PLAYORDER=
